<svg id="undraw_wallet_aym5" xmlns="http://www.w3.org/2000/svg" xmlns:xlink="http://www.w3.org/1999/xlink" width="278" height="179.737" viewBox="0 0 278 179.737">
  <defs>
    <linearGradient id="linear-gradient" x1="0.5" y1="1" x2="0.5" gradientUnits="objectBoundingBox">
      <stop offset="0" stop-color="gray" stop-opacity="0.251"/>
      <stop offset="0.54" stop-color="gray" stop-opacity="0.122"/>
      <stop offset="1" stop-color="gray" stop-opacity="0.102"/>
    </linearGradient>
  </defs>
  <rect id="Rectangle_5" data-name="Rectangle 5" width="278" height="2.032" transform="translate(0 177.705)" fill="#85848b"/>
  <path id="Path_9" data-name="Path 9" d="M807.259,650.563c0,1.563-9.109,6.118-19.929,6.118s-19.251-4.556-19.251-6.118,8.77-1.059,19.6-1.059S807.259,649,807.259,650.563Z" transform="translate(-587.011 -508.729)" fill="#504f60"/>
  <path id="Path_10" data-name="Path 10" d="M807.259,653.72c0,1.563-9.109,6.118-19.929,6.118s-19.251-4.556-19.251-6.118" transform="translate(-587.011 -511.886)" opacity="0.2"/>
  <path id="Path_11" data-name="Path 11" d="M502.515,533.936a12.093,12.093,0,0,0,5.26-.177c.265-.082.556-.265.53-.53a.641.641,0,0,0-.119-.265,16.362,16.362,0,0,1-1.589-3.027.265.265,0,0,0-.1-.138.249.249,0,0,0-.17,0c-.776.2-1.446.7-2.217.919a3.151,3.151,0,0,1-1.208.09c-.35-.04-.826-.328-1.144-.291C501.94,531.674,502.38,532.755,502.515,533.936Z" transform="translate(-391.231 -420.776)" fill="#0d2440"/>
  <path id="Path_12" data-name="Path 12" d="M624.648,517.717a9.191,9.191,0,0,0,3.041-2.855.5.5,0,0,0,.082-.246.508.508,0,0,0-.1-.238,9.842,9.842,0,0,0-2.471-2.667,7.211,7.211,0,0,0-1.377,1.271c-.291.307-1.1.795-1.1,1.263,0,.265.307.572.45.795.193.286.376.577.551.874A10.369,10.369,0,0,1,624.648,517.717Z" transform="translate(-480.152 -407.49)" fill="#0d2440"/>
  <path id="Path_13" data-name="Path 13" d="M480.79,542.729a1.178,1.178,0,0,1-.212.768,1.041,1.041,0,0,1-.445.265c-2.455.879-5.3-.217-7.747.649-.5.177-.98.434-1.486.6a8.082,8.082,0,0,1-1.854.328c-.866.082-1.738.135-2.606.159a6.269,6.269,0,0,1-1.965-.172,2.36,2.36,0,0,1-1.507-1.195,1.147,1.147,0,0,1-.074-.85.917.917,0,0,1,.162-.265,2.322,2.322,0,0,1,.577-.469l.9-.583a6.065,6.065,0,0,1,1.369-.726c.358-.117.736-.167,1.1-.265a7.461,7.461,0,0,0,3.139-2.344l1.229-1.311a1.236,1.236,0,0,1,.426-.342,1.181,1.181,0,0,1,.53-.05,7.082,7.082,0,0,1,3.351,1.123,4.34,4.34,0,0,0,.826.487,2.951,2.951,0,0,0,2.31-.286c.315-.169.246-.265.379-.567s.456-.5.736-.22a.779.779,0,0,1,.175.334,9.4,9.4,0,0,1,.164,2.731,1.2,1.2,0,0,0,.053.424,2.4,2.4,0,0,0,.241.392.894.894,0,0,1,.05.1,2.694,2.694,0,0,1,.177,1.279Z" transform="translate(-362.622 -426.023)" fill="#514e7f"/>
  <path id="Path_14" data-name="Path 14" d="M480.79,555.277a1.178,1.178,0,0,1-.212.768,1.041,1.041,0,0,1-.445.265c-2.455.879-5.3-.217-7.747.649-.5.177-.98.434-1.486.6a8.085,8.085,0,0,1-1.854.328c-.866.082-1.738.135-2.606.159a6.267,6.267,0,0,1-1.965-.172,2.36,2.36,0,0,1-1.507-1.195,1.147,1.147,0,0,1-.074-.85.917.917,0,0,1,.162-.265c.143.3.246.7.336.84a1.719,1.719,0,0,0,1.15.829,2.855,2.855,0,0,0,1.059-.135c2.225-.551,4.59-.559,6.728-1.393a15.558,15.558,0,0,1,2.2-.848,17.329,17.329,0,0,1,2.384-.193c1.255-.1,2.471-.479,3.708-.678a2.694,2.694,0,0,1,.167,1.287Z" transform="translate(-362.622 -438.571)" fill="#464353"/>
  <path id="Path_15" data-name="Path 15" d="M612.63,522.009a4.464,4.464,0,0,1-1.356,2.416,15.793,15.793,0,0,0-1.9,2.077c-.636.972-.922,2.177-1.748,3a4.8,4.8,0,0,1-1.059.755,7.394,7.394,0,0,1-1.364.628,10.177,10.177,0,0,1-3.854.209,3.465,3.465,0,0,1-1.224-.236,3.685,3.685,0,0,1-.509-.312,2.429,2.429,0,0,1-.795-.795.8.8,0,0,1-.077-.577,1.356,1.356,0,0,1,.368-.562,8.752,8.752,0,0,1,.932-.84,5.582,5.582,0,0,0,1.213-1.059,3.423,3.423,0,0,0,.469-1.06,9.4,9.4,0,0,0,.342-2.026,6.421,6.421,0,0,1,.14-1.356c.2-.7.715-1.324.657-2.047a.512.512,0,0,1,.026-.31.432.432,0,0,1,.244-.151,4.318,4.318,0,0,1,1.266-.294,1.476,1.476,0,0,1,1.176.461c.18.217.3.53.564.615a.9.9,0,0,0,.4.016,3.373,3.373,0,0,0,1.854-.569,2.312,2.312,0,0,0,.768-1.687c0-.241-.109-.493.265-.53.281-.037.5.265.646.45a6.275,6.275,0,0,1,1.24,2.257.664.664,0,0,1,.236-.045,1.025,1.025,0,0,1,.845.432A1.682,1.682,0,0,1,612.63,522.009Z" transform="translate(-462.51 -411.943)" fill="#514e7f"/>
  <path id="Path_16" data-name="Path 16" d="M612.908,529.3a4.464,4.464,0,0,1-1.356,2.416,15.8,15.8,0,0,0-1.9,2.077c-.636.972-.922,2.177-1.748,3a4.8,4.8,0,0,1-1.059.755,7.392,7.392,0,0,1-1.364.628,10.178,10.178,0,0,1-3.854.209,3.467,3.467,0,0,1-1.224-.236,3.693,3.693,0,0,1-.509-.313,2.429,2.429,0,0,1-.795-.795,1.935,1.935,0,0,1,.795-.191c.572.032.991.572,1.539.739.781.236,1.56-.315,2.352-.5a15.927,15.927,0,0,0,1.571-.265,3.882,3.882,0,0,0,1.163-.7,5.919,5.919,0,0,0,1.242-1.2,7.694,7.694,0,0,0,.728-1.454,20.793,20.793,0,0,1,1.473-2.818,1.993,1.993,0,0,1,.3-.392,4.173,4.173,0,0,1,.405-.294,3.078,3.078,0,0,0,.935-1.706,2.988,2.988,0,0,1,.209-.569,1.025,1.025,0,0,1,.845.432A1.682,1.682,0,0,1,612.908,529.3Z" transform="translate(-462.788 -419.23)" fill="#464353"/>
  <path id="Path_17" data-name="Path 17" d="M438.673,203.835a5.618,5.618,0,0,1,1.589,1.854c.371.726,2.508,6.357,2.384,7.175.7-.7,3.443-.816,4.148-1.518.294-.294,1.881-1.761,2.119-2.1s2.008-1.059,2.2-1.42c.723-1.3-5.128-6.2-4.378-7.483a.334.334,0,0,0,.061-.2.328.328,0,0,0-.1-.156,8.774,8.774,0,0,0-1.693-1.157,2.684,2.684,0,0,1-1.29-1.536,5.562,5.562,0,0,0-1.5,1.012q-1.61,1.38-3.165,2.816c-.405.376-1.189.877-1.377,1.414C437.454,203.109,438.286,203.52,438.673,203.835Z" transform="translate(-344.094 -176.35)" fill="#a1616a"/>
  <path id="Path_18" data-name="Path 18" d="M456.841,214.13a17.239,17.239,0,0,0-2.506,2.05,4.987,4.987,0,0,0-1.589,2.553c-.074.395-.064.795-.124,1.195-.265,1.735-1.764,3.006-2.426,4.63a8.025,8.025,0,0,0-.421,1.549,18.316,18.316,0,0,0-.3,3.041c-.016.988.954,1.669,1.308,2.59a15.815,15.815,0,0,1,.63,2.816A33.361,33.361,0,0,0,453,239.772c1.306,3.607,5.538,13.58,6.844,17.19,4-1,14.655-3.311,18.2-5.427,1.181-.7-8.2-8.653-6.934-9.2a.472.472,0,0,0,.355-.665c-1.263-5.525-5.215-10.065-7.008-15.444a46.865,46.865,0,0,0-2.588-5.236c-.768-1.608-1.179-3.385-2.1-4.913a3.1,3.1,0,0,0-.67-.834,3.952,3.952,0,0,0-.739-.448C457.834,214.538,457.347,214.387,456.841,214.13Z" transform="translate(-352.79 -188.729)" fill="#514e7f"/>
  <circle id="Ellipse_3" data-name="Ellipse 3" cx="6.264" cy="6.264" r="6.264" transform="translate(88.527 14.329)" fill="#a1616a"/>
  <path id="Path_19" data-name="Path 19" d="M466.4,205.545a2.1,2.1,0,0,1,2.355-.339,1.138,1.138,0,0,1,.7,1.131l3.107.048a6.238,6.238,0,0,1,1.473.135,2.14,2.14,0,0,1,1.229.771c.037.05.079.111.143.119a.228.228,0,0,0,.143-.048,2.7,2.7,0,0,1,1.547-.265,8.356,8.356,0,0,1,4.548,2,1.47,1.47,0,0,1,.53.66c.109.352-.021.795.265,1.046,0,2.914,1,5.636,1.669,8.476a3.8,3.8,0,0,0,.94,1.351,5.448,5.448,0,0,1,1,1.5c.567,1.473-.215,3.2.336,4.683a8.025,8.025,0,0,0,1.059,1.682,4.349,4.349,0,0,1,.906,2.172c.024.355-.021.713,0,1.059a6.415,6.415,0,0,0,.265,1.406q.339,1.282.71,2.561c.4,1.377.927,2.863,2.161,3.6-2.98.506-6.121,1-8.96-.034a4.646,4.646,0,0,1-1.118-.559,6.44,6.44,0,0,1-1.963-3.163,14.935,14.935,0,0,1-1.094-4.082,4.686,4.686,0,0,0-.188-1.324,3.771,3.771,0,0,0-1.759-1.658,8.444,8.444,0,0,1-2.119-1.647,3.292,3.292,0,0,1-.858-2.474c.053-.437.225-.858.241-1.3a1.017,1.017,0,0,0-.6-1.059c-2.169-.657-3.2-3.226-3.687-5.44a17.468,17.468,0,0,1-.278-3.47l-.029-2.259a2.982,2.982,0,0,1-.975-2.143,2.547,2.547,0,0,0-.013-.71,1.958,1.958,0,0,0-.5-.755A6.739,6.739,0,0,1,466.4,205.545Z" transform="translate(-365.236 -182.009)" fill="#464353"/>
  <path id="Path_20" data-name="Path 20" d="M440,228.962a17.351,17.351,0,0,1-.069,2.1c-.061.265-.167.53-.244.776a4.556,4.556,0,0,0,.289,2.948,16.42,16.42,0,0,0,1.507,2.609,4.237,4.237,0,0,1,.482.9,4.675,4.675,0,0,1,.185,1.03,32,32,0,0,0,.736,4.164c.3,1.187,3.666,11.331,4.45,12.271a1,1,0,0,0,.6.411,1.1,1.1,0,0,0,.514-.106l1.589-.609a1.038,1.038,0,0,0,.368-.2.948.948,0,0,0,.228-.625c.114-1.293-3.263-11.509-3.692-12.73-1.3-3.687-3.025-7.242-3.87-11.058-.236-1.059-.36-2.691-1.136-3.536-.32-.35-.212-.2-.6-.019a4.349,4.349,0,0,0-.562.294A1.838,1.838,0,0,0,440,228.962Z" transform="translate(-345.508 -198.264)" fill="#464353"/>
  <path id="Path_21" data-name="Path 21" d="M556.62,320.79" transform="translate(-431.56 -267.138)" fill="#464353"/>
  <path id="Path_22" data-name="Path 22" d="M458.377,230.451c.426,2.254.866,4.5,1.3,6.757l6.219-1.629a4.371,4.371,0,0,0-.53-1.854c-.567-1.422-.58-3.006-1.038-4.468-.347-1.112-.951-2.135-1.277-3.255-.188-.652-.283-1.324-.469-1.984a14.408,14.408,0,0,0-.731-1.894,11.856,11.856,0,0,0-1.356-2.514,3.955,3.955,0,0,0-2.1,1.359,2.934,2.934,0,0,0-.387,1.324c-.109,1.4.4,2.8.23,4.188a12.316,12.316,0,0,0,.13,3.97Z" transform="translate(-359.063 -192.758)" fill="#0d2440"/>
  <path id="Path_23" data-name="Path 23" d="M478.619,336.423a7.428,7.428,0,0,1-.569,4.029,31.223,31.223,0,0,0-1.266,6.065,5.249,5.249,0,0,1-.313,1.534c-.2.442-.53.816-.758,1.237a6.213,6.213,0,0,0-.474,3.724c.09.834.225,1.666.392,2.487a6.291,6.291,0,0,1,.162,3.033c.493-.109.826.53.795,1.03a2.749,2.749,0,0,0,.048,1.491c.609.223.615,1.059.6,1.708a14.369,14.369,0,0,0,.424,3.337q1.383,6.648,2.935,13.259c2.238.694,4.852,1.417,6.987.456a1.4,1.4,0,0,0,.885-.89,1.553,1.553,0,0,0-.085-.683l-1.012-3.682a6.76,6.76,0,0,1-.363-2.723c.1-.681.395-1.414.061-2.016-.114-.207-.294-.368-.426-.564-.53-.776-.252-1.814-.209-2.755a2.182,2.182,0,0,0-.042-.63,3.149,3.149,0,0,0-.3-.691,10.573,10.573,0,0,1-1.165-5.26,1.3,1.3,0,0,0-.093-.686,2.212,2.212,0,0,1-.172-.281.768.768,0,0,1,.056-.506,4.636,4.636,0,0,1-.816-.795,1.142,1.142,0,0,0,.2-1.785.6.6,0,0,0,.283-1.025c-.13-.09-.3-.13-.395-.265-.143-.2-.026-.469.09-.678l.617-1.115c.461-.829.564-1.854,1.059-2.649a19.851,19.851,0,0,0,1.632-3.724l1.783-4.919,1.2,1.041a3.793,3.793,0,0,1,.985,1.123,4.847,4.847,0,0,1,.32,1.346c.44,2.67,2.119,4.985,2.741,7.615a5.014,5.014,0,0,0,.567,1.7,3.7,3.7,0,0,1,.323.487,2.585,2.585,0,0,1,.135.808,3.769,3.769,0,0,0,1.589,2.7c.591.405,1.324.683,1.645,1.324a2.469,2.469,0,0,0,.265.564c.286.344.9.384,1.025.816.069.241-.058.53.077.742a.7.7,0,0,0,.294.22l1.724.861c1.928.964,2.914,3.178,4.336,4.791a10.331,10.331,0,0,1,1.3,1.716c.615,1.1.9,2.479,1.936,3.178a2.929,2.929,0,0,1,.752.559c.326.429.207,1.03.236,1.571s.442,1.184.956,1.02a3.769,3.769,0,0,0,0,2,10.065,10.065,0,0,0,6.108-2.474,2.41,2.41,0,0,0,.993-1.669.6.6,0,0,0-.074-.331.946.946,0,0,0-.389-.294c-1.613-.874-2.1-2.9-2.914-4.545a39.361,39.361,0,0,0-2.649-4.05c-1.918-2.9-3.226-6.41-6.126-8.325a4.169,4.169,0,0,1-1.7-1.491c-.177-.389-.2-.834-.339-1.237a1.073,1.073,0,0,0-.906-.795,5.55,5.55,0,0,0,.207-1.923,2.428,2.428,0,0,0-.1-.829,4.031,4.031,0,0,0-.426-.821,7.877,7.877,0,0,1-1.091-4.238,6.948,6.948,0,0,0-.074-2.286c-.117-.368-.32-.7-.461-1.059a6.622,6.622,0,0,1-.331-1.992l-.159-2.545a12.522,12.522,0,0,0-.328-2.516c-.53-1.976-1.059-10.253-2.874-11.185s-4.932,5.438-6.974,5.562a9.081,9.081,0,0,0-2.649.511,12.9,12.9,0,0,0-3.607,2.384l-3.756,3.155A13.838,13.838,0,0,1,478.619,336.423Z" transform="translate(-371.678 -268.747)" fill="#464353"/>
  <path id="Path_24" data-name="Path 24" d="M415.728,164.776A4.722,4.722,0,0,1,419.373,163a8.488,8.488,0,0,1,4.029,1.012,4.977,4.977,0,0,0,1.176.482c.662.135,1.4-.045,2,.265a2.392,2.392,0,0,1,.879,2.384,4.376,4.376,0,0,0,.238,2.649,6.125,6.125,0,0,1,.458.691,2.286,2.286,0,0,1-.037,1.473,9.541,9.541,0,0,1-.76-.972.9.9,0,0,0-1.1-.283c-.342.23-.336.649-.355,1.025s-.114.826-.469.948a.76.76,0,0,1-.795-.31c-.607-.742-.363-1.926-.964-2.673-.342-.424-.911-.63-1.226-1.075-.249-.35-.313-.795-.53-1.171s-.723-.652-1.059-.392a1.433,1.433,0,0,0-.283.379,1.629,1.629,0,0,1-1.934.583,3.235,3.235,0,0,0-.837-.363,1.036,1.036,0,0,0-.956.53,2.069,2.069,0,0,0-.265,1.107,2.551,2.551,0,0,1-.207,1.518,1.57,1.57,0,0,1-.424.4,1.319,1.319,0,0,1-1.467.151,1.1,1.1,0,0,1-.328-1.028,8.305,8.305,0,0,1,.313-1.086c.233-.821-.072-1.745.183-2.519A8.042,8.042,0,0,1,415.728,164.776Z" transform="translate(-326.815 -151.138)" fill="#464353"/>
  <path id="Path_25" data-name="Path 25" d="M432.765,208.942a.964.964,0,0,0,.058.575.914.914,0,0,0,.313.3,6.425,6.425,0,0,0,2.951.956.9.9,0,0,1,.408.106.717.717,0,0,1,.172.821,2.137,2.137,0,0,0-.188.874c.077.554.734.795,1.287.877a2.994,2.994,0,0,0,2.241-.437,3.462,3.462,0,0,0,.924-1.385c1.52-3.494,2.053-7.355,3.592-10.838a2.3,2.3,0,0,0,.23-.726.715.715,0,0,0-.286-.667c-.286-.177-.731-.077-.924-.355-.1-.14-.085-.331-.17-.479-.177-.315-.644-.265-.961-.448-.249-.132-.421-.405-.7-.458a.879.879,0,0,0-.723.313,9.313,9.313,0,0,0-1.881,3.165,37.106,37.106,0,0,1-2.691,4.99,2.91,2.91,0,0,0-.842-1.65c-.474-.1-1.081.736-1.338,1.046A6.664,6.664,0,0,0,432.765,208.942Z" transform="translate(-340.496 -176.618)" fill="#0d2440"/>
  <path id="Path_26" data-name="Path 26" d="M460.953,200.32a1.269,1.269,0,0,0-.983.493,2.8,2.8,0,0,0-.411,1.324,11.509,11.509,0,0,1-1.56,4.19" transform="translate(-359.061 -178.577)" opacity="0.1"/>
  <path id="Path_27" data-name="Path 27" d="M466.222,204.31a1.512,1.512,0,0,0-1.285.771,4.33,4.33,0,0,0-.323,1.308,7.18,7.18,0,0,1-1.285,2.752" transform="translate(-362.979 -181.51)" opacity="0.1"/>
  <path id="Path_28" data-name="Path 28" d="M300.64,365.34v-3.29a9.133,9.133,0,0,0-9.133-9.13H161.593a9.133,9.133,0,0,0-9.133,9.13v6.065Z" transform="translate(-134.449 -290.758)" fill="#33323d"/>
  <path id="Path_29" data-name="Path 29" d="M323.366,282.073s-.371,23.006,3.708,30.576,5.827,40.5,5.827,40.5,42.76,4.423,72.558-5.3,93.2-13.7,93.2-13.7l-10.685-72.015s-52.785-3.385-82.814,10.936S323.366,282.073,323.366,282.073Z" transform="translate(-260.081 -223.768)" fill="#8dd070"/>
  <path id="Path_30" data-name="Path 30" d="M323.366,282.073s-.371,23.006,3.708,30.576,5.827,40.5,5.827,40.5,42.76,4.423,72.558-5.3,93.2-13.7,93.2-13.7l-10.685-72.015s-52.785-3.385-82.814,10.936S323.366,282.073,323.366,282.073Z" transform="translate(-260.081 -223.768)" opacity="0.1"/>
  <path id="Path_31" data-name="Path 31" d="M358.39,304.591s-1.338,18.983,2.018,25.049,3.512,33.143,3.512,33.143,38.483,1.785,65.857-7.533,84.9-15.362,84.9-15.362l-6.537-58.893s-47.6-.49-75.376,12.626S358.39,304.591,358.39,304.591Z" transform="translate(-285.641 -237.881)" fill="#8dd070"/>
  <ellipse id="Ellipse_4" data-name="Ellipse 4" cx="9.991" cy="21.428" rx="9.991" ry="21.428" transform="translate(131.486 65.293) rotate(-7.1)" opacity="0.1"/>
  <path id="Path_32" data-name="Path 32" d="M417.754,130.66s-51.281,12.979-75.463,35.823-75.09,33.662-75.09,33.662,6.706,22.008,12.91,27.962,17.969,36.764,17.969,36.764,42.053-8.915,67.427-27.318,84.511-41.645,84.511-41.645Z" transform="translate(-218.798 -127.368)" opacity="0.2"/>
  <path id="Path_33" data-name="Path 33" d="M264.29,187.713s6.7,22.011,12.9,27.965,17.969,36.761,17.969,36.761,42.058-8.913,67.435-27.316S447.1,183.486,447.1,183.486L414.841,118.23s-51.278,12.979-75.461,35.823S264.29,187.713,264.29,187.713Z" transform="translate(-216.659 -118.23)" fill="#8dd070"/>
  <path id="Path_34" data-name="Path 34" d="M264.29,187.713s6.7,22.011,12.9,27.965,17.969,36.761,17.969,36.761,42.058-8.913,67.435-27.316S447.1,183.486,447.1,183.486L414.841,118.23s-51.278,12.979-75.461,35.823S264.29,187.713,264.29,187.713Z" transform="translate(-216.659 -118.23)" opacity="0.1"/>
  <path id="Path_35" data-name="Path 35" d="M308,209.915s4.553,18.48,9.609,23.221,13.508,30.46,13.508,30.46,37.172-10.113,60.366-27.382,76.094-40.649,76.094-40.649L443.287,141.5s-45.449,14.136-67.864,35.145S308,209.915,308,209.915Z" transform="translate(-248.791 -135.337)" fill="#8dd070"/>
  <ellipse id="Ellipse_5" data-name="Ellipse 5" cx="9.991" cy="21.428" rx="9.991" ry="21.428" transform="translate(114.686 55.206) rotate(-24.97)" opacity="0.1"/>
  <path id="Path_36" data-name="Path 36" d="M304.169,386.432v91.379a7.9,7.9,0,0,1-7.9,7.9H160.388a7.9,7.9,0,0,1-7.9-7.9V377.22c3.894,1.446,3.894,1.446,7.9,1.324H296.266A7.9,7.9,0,0,1,304.169,386.432Z" transform="translate(-134.471 -308.622)" opacity="0.1"/>
  <path id="Path_37" data-name="Path 37" d="M304.169,390.815v91.379a7.9,7.9,0,0,1-7.9,7.9H160.388a7.9,7.9,0,0,1-7.9-7.9V381.6c3.894,1.444,3.894,1.444,7.9,1.324H296.266A7.9,7.9,0,0,1,304.169,390.815Z" transform="translate(-134.471 -311.842)" fill="#504f60"/>
  <path id="Path_38" data-name="Path 38" d="M604.474,543.936v29.223H576.133a14.612,14.612,0,1,1,0-29.224Z" transform="translate(-435.162 -431.179)" opacity="0.1"/>
  <path id="Path_39" data-name="Path 39" d="M605.934,541v29.228H577.593a14.612,14.612,0,1,1,0-29.224Z" transform="translate(-436.235 -429.022)" fill="#33323d"/>
  <circle id="Ellipse_6" data-name="Ellipse 6" cx="5.697" cy="5.697" r="5.697" transform="translate(137.019 121.672)" opacity="0.1"/>
  <circle id="Ellipse_7" data-name="Ellipse 7" cx="5.697" cy="5.697" r="5.697" transform="translate(137.406 120.899)" fill="#0d2440"/>
  <path id="Path_40" data-name="Path 40" d="M859.386,528.7c.225,2.439-1.621,4.807-1.083,7.2.117.511.336.993.416,1.51.222,1.42-.622,2.763-1.43,3.949l-6.94,10.182a6.32,6.32,0,0,1-.991,1.224c-1.324,1.181-3.316,1.059-5.059,1.412a8.644,8.644,0,0,0-3.39,1.5.217.217,0,0,0-.032.3,2.914,2.914,0,0,0,2.522,1.184c.183.241,0,.593-.265.765-.373.265-.885.328-.959.959a1.041,1.041,0,0,0,.127.636,1.973,1.973,0,0,0,1.213.845c2.4.734,5-.556,6.8-2.312s3.088-3.973,4.852-5.761c.977-.988,2.087-1.836,3.094-2.794a35.417,35.417,0,0,0,5.075-6.566,7.327,7.327,0,0,0,1.1-2.235c.191-.813.1-1.634.315-2.421a8.917,8.917,0,0,1,1.663-2.72,9,9,0,0,0,1.891-5.856,5.614,5.614,0,0,0-3.427-4.86,3.046,3.046,0,0,0-1.92-.117A4.561,4.561,0,0,0,861,526.269l-1.324,1.523a3.57,3.57,0,0,0-.768,1.165,1.221,1.221,0,0,0,.265,1.3" transform="translate(-640.494 -416.974)" fill="#fbbebe"/>
  <path id="Path_41" data-name="Path 41" d="M859.386,528.7c.225,2.439-1.621,4.807-1.083,7.2.117.511.336.993.416,1.51.222,1.42-.622,2.763-1.43,3.949l-6.94,10.182a6.32,6.32,0,0,1-.991,1.224c-1.324,1.181-3.316,1.059-5.059,1.412a8.644,8.644,0,0,0-3.39,1.5.217.217,0,0,0-.032.3,2.914,2.914,0,0,0,2.522,1.184c.183.241,0,.593-.265.765-.373.265-.885.328-.959.959a1.041,1.041,0,0,0,.127.636,1.973,1.973,0,0,0,1.213.845c2.4.734,5-.556,6.8-2.312s3.088-3.973,4.852-5.761c.977-.988,2.087-1.836,3.094-2.794a35.417,35.417,0,0,0,5.075-6.566,7.327,7.327,0,0,0,1.1-2.235c.191-.813.1-1.634.315-2.421a8.917,8.917,0,0,1,1.663-2.72,9,9,0,0,0,1.891-5.856,5.614,5.614,0,0,0-3.427-4.86,3.046,3.046,0,0,0-1.92-.117A4.561,4.561,0,0,0,861,526.269l-1.324,1.523a3.57,3.57,0,0,0-.768,1.165,1.221,1.221,0,0,0,.265,1.3" transform="translate(-640.494 -416.974)" opacity="0.05"/>
  <path id="Path_42" data-name="Path 42" d="M913.893,769.32a8.033,8.033,0,0,1-5.165.765c-.283-.034-.62-.056-.795.164-.265.318.048.795.371,1.041a7.641,7.641,0,0,0,3.547,1.459,23.351,23.351,0,0,0,3.47.23,58.661,58.661,0,0,0,9.485-.347,1.343,1.343,0,0,0,.53-.154.97.97,0,0,0,.392-.6,2.364,2.364,0,0,0-.824-2.257,6.915,6.915,0,0,0-2.212-1.187l-2.755-1.073a7.08,7.08,0,0,0-2.384-.866C916.235,766.6,914.987,768.679,913.893,769.32Z" transform="translate(-689.749 -594.793)" fill="#3f3d56"/>
  <path id="Path_43" data-name="Path 43" d="M913.893,769.32a8.033,8.033,0,0,1-5.165.765c-.283-.034-.62-.056-.795.164-.265.318.048.795.371,1.041a7.641,7.641,0,0,0,3.547,1.459,23.351,23.351,0,0,0,3.47.23,58.661,58.661,0,0,0,9.485-.347,1.343,1.343,0,0,0,.53-.154.97.97,0,0,0,.392-.6,2.364,2.364,0,0,0-.824-2.257,6.915,6.915,0,0,0-2.212-1.187l-2.755-1.073a7.08,7.08,0,0,0-2.384-.866C916.235,766.6,914.987,768.679,913.893,769.32Z" transform="translate(-689.749 -594.793)" opacity="0.05"/>
  <path id="Path_44" data-name="Path 44" d="M932.192,595.7c-1.147,1.526-2.333,3.287-2.05,5.175a11.537,11.537,0,0,0,1.142,2.855,20.142,20.142,0,0,1,1.155,4.015c.429,2,.861,4,1.123,6.028.3,2.291-1.107,8.921-1.237,11.228a2.373,2.373,0,0,1-.485,1.557c-.151.159-.352.286-.421.493a.842.842,0,0,0,.093.583,6.41,6.41,0,0,0,3.443,3.163,27.231,27.231,0,0,0,6.64,1.745,1.324,1.324,0,0,0,.625-.082,1.216,1.216,0,0,0,.482-.554c1.152-2.2.045-10.039.061-12.526.016-2.074.506-4.135.416-6.206-.074-1.663-.53-3.29-.681-4.948a29.2,29.2,0,0,1,.734-8.134c.381-2.061.765-4.121,1.255-6.156a11.818,11.818,0,0,1,1.324-3.573c.53-.856,1.274-1.571,1.891-2.384a10.759,10.759,0,0,0,2.119-7.877c-.037-.265-3.973,1-4.32,1.15a13.458,13.458,0,0,0-3.851,2.477,32.361,32.361,0,0,0-2.426,3q-1.693,2.063-3.343,4.156Q934,593.284,932.192,595.7Z" transform="translate(-706.117 -457.745)" fill="#464353"/>
  <path id="Path_45" data-name="Path 45" d="M932.192,595.391c-1.147,1.526-2.333,3.29-2.05,5.176a11.515,11.515,0,0,0,1.142,2.858,20.118,20.118,0,0,1,1.155,4.013c.429,2,.861,4,1.123,6.028.3,2.294-1.107,8.921-1.237,11.228a2.38,2.38,0,0,1-.485,1.56c-.151.156-.352.283-.421.49a.84.84,0,0,0,.093.583,6.488,6.488,0,0,0,3.443,3.178,25.588,25.588,0,0,0,6.64,1.242,1.324,1.324,0,0,0,.625-.082,1.2,1.2,0,0,0,.482-.551c1.152-2.2.045-9.535.061-12.025.016-2.077.506-4.135.416-6.209-.074-1.663-.53-3.29-.681-4.945a29.209,29.209,0,0,1,.734-8.137c.381-2.058.765-4.119,1.255-6.156a11.818,11.818,0,0,1,1.324-3.573c.53-.856,1.274-1.571,1.891-2.384a10.754,10.754,0,0,0,2.119-7.877c-.037-.265-3.973,1-4.32,1.15a13.52,13.52,0,0,0-3.851,2.479,31.989,31.989,0,0,0-2.426,3q-1.693,2.063-3.343,4.158Q934,592.968,932.192,595.391Z" transform="translate(-706.117 -457.525)" opacity="0.05"/>
  <circle id="Ellipse_8" data-name="Ellipse 8" cx="6.428" cy="6.428" r="6.428" transform="translate(206.886 91.501)" fill="#fbbebe"/>
  <path id="Path_46" data-name="Path 46" d="M894.67,483.535a8.325,8.325,0,0,0,5.337,3.724l-.485,1.761c-.837,3.025-1.777,6.224-4.113,8.322a3.869,3.869,0,0,0-.652-3.009,11.343,11.343,0,0,0-2.182-2.281l-3.7-3.2a1.115,1.115,0,0,1-.265-.313.94.94,0,0,1,0-.7c.471-1.467,1.817-2.384,2.914-3.374a10.092,10.092,0,0,0,1.465-1.706C893.727,481.7,894.185,482.757,894.67,483.535Z" transform="translate(-675.566 -385.876)" fill="#fbbebe"/>
  <path id="Path_47" data-name="Path 47" d="M853.4,449.244l-.146-1.208c1.014.265,1.979-.6,2.628-1.491s1.25-1.944,2.238-2.318c1.2-.45,2.471.265,3.618.869a11.439,11.439,0,0,0,4.151,1.351,2.73,2.73,0,0,1,.686.111,2.387,2.387,0,0,1,1.21,2.053,8.029,8.029,0,0,0,.448,2.511c.265.575.758,1,1.06,1.568.795,1.52.026,3.6.855,5.091l-2.061-1.888c-.188-.172-.453-.352-.662-.207-.164.117-.177.368-.244.569a1.082,1.082,0,0,1-1.467.53,4.2,4.2,0,0,1-1.324-1.2,8.039,8.039,0,0,0-3.268-2.479,4.2,4.2,0,0,0-3.443.228c-.961.543-1.666,1.809-2.845,1.854-1.616.061-2.288-2.948-3.035-4.137a1.457,1.457,0,0,0,.424-1.822C852.332,449.183,853.379,449.058,853.4,449.244Z" transform="translate(-648.556 -357.777)" fill="#464353"/>
  <path id="Path_48" data-name="Path 48" d="M551.873,317.443a12.506,12.506,0,0,0-1.428,1.5,3,3,0,0,0-.657,1.926.985.985,0,0,0,.185.564.477.477,0,0,0,.53.162.713.713,0,0,0,.265-.233,12.783,12.783,0,0,1,.89-.964c.114-.114.265-.233.419-.191a.448.448,0,0,1,.18.119,1.218,1.218,0,0,1,.374.583,1.373,1.373,0,0,1-.411,1.128,2.891,2.891,0,0,0-.691,1.022.453.453,0,0,0,0,.328.493.493,0,0,0,.207.175,2.956,2.956,0,0,0,2.5.164c.53-.215,1-.583,1.547-.773a3.576,3.576,0,0,0,.683-.265,1.42,1.42,0,0,0,.607-.909,3.744,3.744,0,0,0,.04-1.115,12.824,12.824,0,0,0-.911-4.193.53.53,0,0,0-.154-.223.49.49,0,0,0-.265-.072,6.3,6.3,0,0,0-2.445-.167,1.728,1.728,0,0,0-.577.514C552.639,316.659,551.873,317.265,551.873,317.443Z" transform="translate(-426.538 -263.558)" fill="#a1616a"/>
  <path id="Path_49" data-name="Path 49" d="M530.455,250.707c0-.646-.795-2.206.469-2.31,0-.691-.977-1.12-.795-1.854.058-.244.265-.442.289-.691.079-.707-1.2-1.091-.985-1.769.079-.265.36-.418.421-.681.143-.612-.951-.885-.972-1.512,0-.212.119-.411.109-.622,0-.265-.23-.466-.358-.7-.331-.591-.17-1.5-.773-1.809.4.034.53-.559.366-.922s-.5-.678-.5-1.081a1.632,1.632,0,0,0,0-.44c-.111-.387-.744-.418-.85-.795a3.384,3.384,0,0,1-.013-.434c-.042-.3-.35-.49-.638-.575a2.6,2.6,0,0,1-.853-.3c-.185-.14-.4-.373-.6-.265-.074.045-.111.13-.167.193-.238.278-.694.156-.993-.048a4.08,4.08,0,0,1-1.512-2.731c-.188-1.052-.183-2.137-.418-3.178a6.8,6.8,0,0,0-.286-.954,5.02,5.02,0,0,1-.445-.948c-.048-.609,1.213-.193,1.693-.132a7.538,7.538,0,0,1,1.375.265,14.693,14.693,0,0,1,1.406.617c1.912.845,4.222.948,5.758,2.368a4.827,4.827,0,0,0,1.589,1.29,7.2,7.2,0,0,1,.89.23c.728.342.842,1.308,1.24,2.008a3.935,3.935,0,0,1,.326.583,2.245,2.245,0,0,1,.106.742l.056,1.836a67.685,67.685,0,0,1-.148,9.215,7.554,7.554,0,0,0,.034,3.017c.079.265.191.514.265.781a4.768,4.768,0,0,1,.1.954l.042,1.189a.371.371,0,0,1-.058.265.381.381,0,0,1-.32.077c-1.655-.148-3.329-1.081-4.892-.516" transform="translate(-405.334 -197.421)" fill="#464353"/>
  <ellipse id="Ellipse_9" data-name="Ellipse 9" cx="19.59" cy="2.831" rx="19.59" ry="2.831" transform="translate(181.077 139.003)" fill="#504f60"/>
  <path id="Path_50" data-name="Path 50" d="M736.595,302.513c-.344-1.475-.559-2.771-.559-2.771a5.709,5.709,0,0,0-.641-2.81v-.4h0v-2.967a10.112,10.112,0,0,1,.75-1.555c.53-.932,0-4.349,0-4.349s-1.979-4.818-1.5-7.875-4.063-13.572-4.063-13.572a13.4,13.4,0,0,1,.426-3,2.291,2.291,0,0,0,.058-.63v-.053c-.069-2.016-1.663-5.793-1.663-5.793l.215-7.2a21.166,21.166,0,0,0-.641-9.946c-.58-1.989-.951-3.581-1.187-4.81-.026-.138-.053-.265-.074-.4,3.414-.53,6.023-.954,6.023-.954s-1.981-8.288-3.319-9.739-2.408-6.01-2.408-6.01-.7-5.851.429-7.562a11.371,11.371,0,0,0,1.285-4.662s2.567-1.854,2.89-2.694a13.744,13.744,0,0,0,.856-3.676c0-.983-.32-1.854-.215-2.384s-.75-2.487-.32-3.419a2.509,2.509,0,0,0,.169-.9.113.113,0,0,0,0-.026h0a12.583,12.583,0,0,0-.225-2.431,6.9,6.9,0,0,0-2.543-1.359l-.056-.222-.146-.583a2.825,2.825,0,0,0-.252-.148V187.4l-.024-.842.4-1.891c.795-3.29-3.6-3.78-3.6-3.78a2.318,2.318,0,0,0-1.245-1.091c-.882-.31-.146,4.948.265,5.3a20.721,20.721,0,0,1,1.732,2.712h0l.074.132a1.846,1.846,0,0,0-.2.212l.167,1.142.026.175a4.736,4.736,0,0,0-.7,1.195,2.577,2.577,0,0,1,.644,1.854,5.94,5.94,0,0,0,.265,2.278c-.048-.056-.612-.665-1.176-.516s-2.14.622-2.14.622-1.176.207-1.059.466-.795,1.4-.795,1.4l-3.163-3c-.032-.09-.066-.18-.093-.265a7.29,7.29,0,0,1-.265-1.324,7.235,7.235,0,0,0,1.012-.32,2.183,2.183,0,0,0,.874-.562,3.389,3.389,0,0,0,.511-1.364,20.055,20.055,0,0,1,1.173-2.617,8.508,8.508,0,0,0,.6-4.709,3.074,3.074,0,0,0-.485-1.377c-.517-.71-1.454-1-2.135-1.565s-1.12-1.433-1.915-1.854a3.8,3.8,0,0,0-2.4-.207,12.933,12.933,0,0,0-4.484,1.632,2.334,2.334,0,0,1-1.5.493,1.957,1.957,0,0,1-1.081-.795.264.264,0,0,1,.013-.042.267.267,0,0,1-.034-.042,5.587,5.587,0,0,0-.493,2.368,2.909,2.909,0,0,0,.016.379v.241h0a.6.6,0,0,1-.024.167,1.2,1.2,0,0,1-.3.426,2.861,2.861,0,0,0-.265.352.438.438,0,0,1,.042-.13,1.883,1.883,0,0,0-.328,1,1.02,1.02,0,0,0,.238.715,3.439,3.439,0,0,0,.516.413,6.028,6.028,0,0,0-.1,1.059,6.121,6.121,0,0,0,2.982,5.221c.037.087.071.177.106.265a7.542,7.542,0,0,1,.575,3.443,1.615,1.615,0,0,1-.037.249c-.013.082-.079.087-.114.132h0s-5.226.053-6.455-1.059-3.1,2.72-3.1,2.72-1.873.363-2.249,0-2.567-.05-2.567-.05a4.723,4.723,0,0,0-3.266-1.192,9.585,9.585,0,0,0-2.384-1.324h0l-.058-.021h0a2.67,2.67,0,0,0-1.179-.148,23.774,23.774,0,0,1-3.319-3.263c-.75-1.144-4.317-5.369-4.333-5.387v-.2l-.04-.614a2.2,2.2,0,0,1-.32.026c-.019-.061-.045-.132-.072-.215a11.846,11.846,0,0,0-.758-1.74s0-.776.225-.972a13.394,13.394,0,0,0-.093-3.043s-2.315-5.411-4.389-1.372c0,0-3.92,2.614-.63,5.66,0,0,1.324.636,1.5,1.139.122.326.567,1.24.866,1.854l.135.265-.037.032.048.509.021.2c-.62.352-1.041.7-.938.964a5.793,5.793,0,0,1,.373,1.4s4.55,5.7,5.138,8.134c0,0,12.2,7.252,16.215,7.769l-.71,3.615a28.842,28.842,0,0,0-.159,2.953c.053.776-.482,4.3-.482,4.3s-.7,5.181-1.285,5.907-.482,3.833-.482,3.833a26.188,26.188,0,0,1-.795,4.4,11.247,11.247,0,0,0-.162,4.4s-2.031,4.662,2.837,1.5c0,0,2.384-.148,5.144-.244v.265c0,.355,0,.739-.019,1.142-.037,2.67-.053,6.357.069,9.133.215,4.921,1.714,14.66,1.714,14.66v4.9a6.671,6.671,0,0,0-.143,1.4,9.1,9.1,0,0,0,1.324,4.9l.376,3.263a12.729,12.729,0,0,1,.9,3.443,1.8,1.8,0,0,1-.037.31,2.086,2.086,0,0,0-.042.5,28.181,28.181,0,0,0,.842,5.032s.053,3.573.588,3.782c.458.177-.612,2.058-.93,2.6a.751.751,0,0,1-.019-.1l-.066.106a2.536,2.536,0,0,0-.167.906,1.3,1.3,0,0,0,.593,1.255c1.017.622,1.563,1.139.7,1.346a8.99,8.99,0,0,0-.943.2.409.409,0,0,0-.045-.119.567.567,0,0,0-.352.625,2.649,2.649,0,0,0,.315,1.2,13.121,13.121,0,0,0,1.449,2.649l.411-.045a2,2,0,0,1-.238.442,1.706,1.706,0,0,1-.6.53,1.87,1.87,0,0,1-.734.252,2.066,2.066,0,0,0-1.515.736,1.58,1.58,0,0,0,.185,2.458l3.827,1.324s6.585.856,6.235-.622-.562-2.771-.562-2.771a5.84,5.84,0,0,0-.53-2.62,3.4,3.4,0,0,0-.233-.387l.233-.024s.482-3.266,1.123-3.886c.148-.143.183-.265.148-.339.066-.177-.1-.281-.318-.342l-.048.13a3.12,3.12,0,0,0-.638-.072s-.215-1.708.482-2.331a.659.659,0,0,0,.135-.509,2.728,2.728,0,0,0-.074-.7.332.332,0,0,1-.024.042,25.094,25.094,0,0,0-1.536-4.018,4.913,4.913,0,0,1,.376-2.175c.429-.622-.056-8.444-.056-8.444a25.559,25.559,0,0,0-.32-5.541,6.22,6.22,0,0,1,.588-3.835v-.138l-.061-.6a.151.151,0,0,0,0,.037c-.109-1-.313-2.816-.464-3.653-.215-1.192.056-6.887.056-6.887l.961-2.437,1.714,4.2,1.82,5.594a4.779,4.779,0,0,1,.922,2.384v.175a3.042,3.042,0,0,0-.021.373,3.326,3.326,0,0,0,.554,1.994s.482,2.649,1.232,3.314a2.974,2.974,0,0,1,.75,1.968,34.4,34.4,0,0,0,1.324,4.5,6.7,6.7,0,0,1,.376,2.6h0v.138s.127,1.372.122,2.522v.411a.111.111,0,0,0,0-.029,3.991,3.991,0,0,1-.111.932l-.016.053a.675.675,0,0,1,.019-.193,9.732,9.732,0,0,0-.265,2.384,6.173,6.173,0,0,0,1.02,3.973c1.446,1.658,2.355,1.451,2.355,1.451s-.694,2.071-1.552,2.487a.4.4,0,0,0-.09.058.9.9,0,0,0-.021-.122,1.009,1.009,0,0,0-.265.773,5.556,5.556,0,0,0,1.059,3.07,1.729,1.729,0,0,0,.723.424,1.149,1.149,0,0,1-.135.082,2.883,2.883,0,0,1-.294.14,1.545,1.545,0,0,1-.437.114,2.04,2.04,0,0,0-1.515.736,1.577,1.577,0,0,0,.185,2.455l3.827,1.324S736.939,303.988,736.595,302.513Z" transform="translate(-519.075 -160.541)" fill="url(#linear-gradient)"/>
  <path id="Path_51" data-name="Path 51" d="M798.643,643.323,794.935,642a1.609,1.609,0,0,1-.18-2.458,1.981,1.981,0,0,1,1.467-.736,1.758,1.758,0,0,0,.707-.252,1.7,1.7,0,0,0,.588-.53,2.736,2.736,0,0,0,.421-1.433s4.068-1.192,5.181,0a3.012,3.012,0,0,1,.493.723,6.052,6.052,0,0,1,.53,2.62s.207,1.293.543,2.771S798.643,643.323,798.643,643.323Z" transform="translate(-606.262 -498.903)" fill="#2d293d"/>
  <path id="Path_52" data-name="Path 52" d="M867.083,636.408l-3.708-1.324a1.606,1.606,0,0,1-.18-2.455,1.957,1.957,0,0,1,1.465-.736,1.373,1.373,0,0,0,.424-.114,2.815,2.815,0,0,0,.286-.14,2.345,2.345,0,0,0,1.009-1.968s4.066-1.192,5.181,0a2.935,2.935,0,0,1,.389.53,5.885,5.885,0,0,1,.62,2.813s.207,1.3.53,2.771S867.083,636.408,867.083,636.408Z" transform="translate(-656.574 -493.816)" fill="#2d293d"/>
  <path id="Path_53" data-name="Path 53" d="M812.159,636.578a3.012,3.012,0,0,1,.493.723h0l-6.092.707a2.736,2.736,0,0,0,.421-1.433S811.047,635.386,812.159,636.578Z" transform="translate(-615.299 -498.894)" opacity="0.1"/>
  <path id="Path_54" data-name="Path 54" d="M878.565,630.219v1.142c-.948,1.56-5.533,1.218-6.865.437a2.827,2.827,0,0,0,.286-.14A2.345,2.345,0,0,0,873,629.69s4.066-1.192,5.181,0a2.935,2.935,0,0,1,.389.53Z" transform="translate(-663.185 -493.831)" opacity="0.1"/>
  <path id="Path_55" data-name="Path 55" d="M814.415,446.507a10.376,10.376,0,0,0-.723,1.555v4.092c-1.038,1.708-6.423,1.139-7.151.207s-1.489-3.359-.67-3.78,1.5-2.487,1.5-2.487-.882.207-2.281-1.451-.983-5.334-.723-6.214a18.356,18.356,0,0,0,0-3.833,7.7,7.7,0,0,0-.36-2.747,34.188,34.188,0,0,1-1.3-4.5,3.049,3.049,0,0,0-.726-1.968c-.726-.673-1.192-3.316-1.192-3.316a3.4,3.4,0,0,1-.516-2.228,4.525,4.525,0,0,0-.882-2.694l-1.761-5.6-1.658-4.2-.932,2.434s-.265,5.7-.05,6.887.53,4.352.53,4.352a6.388,6.388,0,0,0-.57,3.833,26.157,26.157,0,0,1,.3,5.546s.466,7.819.05,8.441a5.056,5.056,0,0,0-.363,2.177s2.119,4.556,1.451,5.178-.466,2.331-.466,2.331,1.449,0,.829.622-1.089,3.886-1.089,3.886l-6.264.734a13.03,13.03,0,0,1-1.4-2.649c-.829-1.926.154-1.708.988-1.918s.307-.723-.678-1.346-.413-2.021-.413-2.021,1.5-2.537.983-2.744-.569-3.782-.569-3.782-1.036-4.238-.776-5.387-.829-3.883-.829-3.883l-.363-3.263a8.979,8.979,0,0,1-1.139-6.166v-5.033s-1.451-9.737-1.658-14.658c-.132-3.152-.1-7.453-.053-10.137.026-1.5.053-2.5.053-2.5l22.376-2.331a18.7,18.7,0,0,0,.405,3.324c.23,1.229.588,2.821,1.15,4.81a21.855,21.855,0,0,1,.622,9.943l-.209,7.2s1.968,4.815,1.555,6.473a13.805,13.805,0,0,0-.419,3.009s4.4,10.515,3.936,13.572,1.449,7.875,1.449,7.875S814.934,445.574,814.415,446.507Z" transform="translate(-598.312 -315.04)" fill="#464353"/>
  <path id="Path_56" data-name="Path 56" d="M852.05,510.179l6.812-.909S855,513.209,852.05,510.179Z" transform="translate(-648.74 -405.696)" opacity="0.05"/>
  <path id="Path_57" data-name="Path 57" d="M870.6,484.14s.233,2.41-1.242,3.316C869.36,487.456,872,487.043,870.6,484.14Z" transform="translate(-661.465 -387.222)" opacity="0.1"/>
  <path id="Path_58" data-name="Path 58" d="M850.121,455.2s-5.695,4.688-7.766,4.3S850.121,455.2,850.121,455.2Z" transform="translate(-641.402 -365.947)" opacity="0.1"/>
  <path id="Path_59" data-name="Path 59" d="M807.8,521s-4.325.983-4.455,2.72S807.8,521,807.8,521Z" transform="translate(-612.932 -414.319)" opacity="0.1"/>
  <path id="Path_60" data-name="Path 60" d="M810.755,602.56s-6.111,1.139-4.376,1.915a29.662,29.662,0,0,0,4.585,1.4S812.937,605.977,810.755,602.56Z" transform="translate(-614.938 -474.277)" opacity="0.05"/>
  <g id="Group_25" data-name="Group 25" transform="translate(185.14 73.08)" opacity="0.05">
    <path id="Path_61" data-name="Path 61" d="M800.4,611.995a1.205,1.205,0,0,1-.559-.885l-.064.109s-.57,1.4.416,2.018c.111.072.22.143.318.212.183-.034.379-.061.567-.109C801.911,613.134,801.383,612.617,800.4,611.995Z" transform="translate(-795.331 -553.642)"/>
    <path id="Path_62" data-name="Path 62" d="M831.506,609.94c.169-.154.164-.551.061-1.06a2.978,2.978,0,0,0-.347,1.5A1.293,1.293,0,0,1,831.506,609.94Z" transform="translate(-818.567 -552.002)"/>
    <path id="Path_63" data-name="Path 63" d="M827.6,515.59a7.064,7.064,0,0,0-.413,1.9,7.681,7.681,0,0,1,.474-1.308Z" transform="translate(-815.604 -483.422)"/>
    <path id="Path_64" data-name="Path 64" d="M881.274,503.757a2.43,2.43,0,0,0,.056-.567c-.077.387-.13.744-.17,1.059C881.194,504.088,881.232,503.934,881.274,503.757Z" transform="translate(-855.279 -474.306)"/>
    <path id="Path_65" data-name="Path 65" d="M827.8,581.922a3.321,3.321,0,0,0,.154-1.152,3.913,3.913,0,0,0-.3,1.454A1.393,1.393,0,0,1,827.8,581.922Z" transform="translate(-815.942 -531.338)"/>
    <path id="Path_66" data-name="Path 66" d="M808.291,622a20.563,20.563,0,0,0-.713,3.178l-6.264.723a13.026,13.026,0,0,1-1.4-2.649,4.792,4.792,0,0,1-.177-.456c-.376.172-.53.562-.032,1.7a13.238,13.238,0,0,0,1.4,2.649l6.264-.726s.466-3.263,1.086-3.886C808.776,622.233,808.58,622.077,808.291,622Z" transform="translate(-795.167 -561.647)"/>
    <path id="Path_67" data-name="Path 67" d="M788.309,445.191s.05,3.573.569,3.78h0c.265-.591.437-1.152.2-1.245-.53-.207-.569-3.782-.569-3.782s-1.036-4.238-.776-5.387-.829-3.883-.829-3.883l-.363-3.263a8.979,8.979,0,0,1-1.139-6.166v-5.032s-1.451-9.737-1.658-14.658c-.132-3.152-.1-7.453-.053-10.136,0-.485.016-.914.024-1.277l-.177.019s-.029,1-.053,2.5c-.042,2.683-.082,6.985.053,10.134.207,4.921,1.655,14.66,1.655,14.66v5.033a8.984,8.984,0,0,0,1.142,6.163l.36,3.263s1.089,2.744.829,3.886S788.309,445.191,788.309,445.191Z" transform="translate(-783.448 -394.14)"/>
    <path id="Path_68" data-name="Path 68" d="M867.984,624.631a6.057,6.057,0,0,1-.993-2.461c-.638.577.1,2.818.795,3.708.723.932,6.111,1.5,7.151-.209v-.985C873.525,626.069,868.667,625.513,867.984,624.631Z" transform="translate(-844.683 -561.772)"/>
    <path id="Path_69" data-name="Path 69" d="M899.126,609.264a10.462,10.462,0,0,0-.726,1.555v.734a10.861,10.861,0,0,1,.53-1.038,3.178,3.178,0,0,0,.228-1.285S899.134,609.254,899.126,609.264Z" transform="translate(-867.953 -552.26)"/>
    <path id="Path_70" data-name="Path 70" d="M864.385,591.2a10.239,10.239,0,0,0,.511-1.232s-.882.207-2.281-1.451c-1.017-1.205-1.075-3.483-.93-4.972-.265.882-.675,4.558.723,6.216A3.69,3.69,0,0,0,864.385,591.2Z" transform="translate(-840.767 -533.381)"/>
    <path id="Path_71" data-name="Path 71" d="M837.029,490a27.6,27.6,0,0,1,.1,3.07,4.191,4.191,0,0,1,.106-.479,17.986,17.986,0,0,0,0-3.833,7.658,7.658,0,0,0-.363-2.747,33.445,33.445,0,0,1-1.282-4.508,3.049,3.049,0,0,0-.726-1.968c-.726-.673-1.192-3.316-1.192-3.316a3.409,3.409,0,0,1-.53-2.228,4.51,4.51,0,0,0-.879-2.694l-1.761-5.594-1.658-4.2-.935,2.437s0,.307-.032.795l.758-1.979,1.658,4.188,1.761,5.594a4.511,4.511,0,0,1,.879,2.694,3.409,3.409,0,0,0,.53,2.228s.466,2.649,1.192,3.316a3.032,3.032,0,0,1,.723,1.968,34.072,34.072,0,0,0,1.3,4.5A7.656,7.656,0,0,1,837.029,490Z" transform="translate(-816.112 -443.666)"/>
  </g>
  <path id="Path_72" data-name="Path 72" d="M864.711,195.738l-.389,1.891.024.842.016.62-2.161.222-.241-.448h0a20.067,20.067,0,0,0-1.677-2.712c-.4-.334-1.112-5.594-.265-5.281a2.259,2.259,0,0,1,1.2,1.089S865.477,192.449,864.711,195.738Z" transform="translate(-654.306 -171.622)" fill="#ffcdd3"/>
  <path id="Path_73" data-name="Path 73" d="M870.852,219.518l-2.161.222-.241-.448h0a1.9,1.9,0,0,1,2.384-.392Z" transform="translate(-660.796 -192.048)" opacity="0.1"/>
  <path id="Path_74" data-name="Path 74" d="M871.052,221.087l-2.85.66-.061-.424-.162-1.142a1.961,1.961,0,0,1,2.76-.376l.143.58Z" transform="translate(-660.451 -192.593)" fill="#0d2440"/>
  <path id="Path_75" data-name="Path 75" d="M686.221,184.827l-3.043,1.632-.265-.572c-.289-.607-.72-1.52-.84-1.854-.18-.5-1.449-1.139-1.449-1.139-3.178-3.043.609-5.66.609-5.66,2.008-4.039,4.238,1.372,4.238,1.372a13.715,13.715,0,0,1,.093,3.043c-.22.191-.22.972-.22.972a11.946,11.946,0,0,1,.734,1.74C686.171,184.65,686.221,184.827,686.221,184.827Z" transform="translate(-521.786 -160.505)" fill="#ffcdd3"/>
  <path id="Path_76" data-name="Path 76" d="M696.1,208.725l-3.043,1.632-.265-.572c.429-.36,1.952-1.589,2.453-1.539a3.665,3.665,0,0,0,.72.019C696.048,208.548,696.1,208.725,696.1,208.725Z" transform="translate(-531.663 -184.402)" opacity="0.1"/>
  <path id="Path_77" data-name="Path 77" d="M696.636,210.224l-3.419,1.685-.069-.734-.048-.509s1.981-1.7,2.567-1.632a3.113,3.113,0,0,0,.893,0l.04.615Z" transform="translate(-531.891 -184.982)" fill="#0d2440"/>
  <path id="Path_78" data-name="Path 78" d="M812.947,224.642s-14.907,1.682-12.12.776a3.726,3.726,0,0,0,2.871-3.231,7.762,7.762,0,0,0-.554-3.443,15.012,15.012,0,0,0-1.324-2.694s11.389-6.267,9.114-.569a9.184,9.184,0,0,0-.646,2.7,7.623,7.623,0,0,0,.294,2.733A8.139,8.139,0,0,0,812.947,224.642Z" transform="translate(-610.829 -187.963)" fill="#ffcdd3"/>
  <path id="Path_79" data-name="Path 79" d="M814.646,215.45a9.186,9.186,0,0,0-.646,2.7c-1.073.9-2.249.842-3.761.842-1.16,0-2.447.281-3.374-.278a15.016,15.016,0,0,0-1.324-2.694S816.927,209.752,814.646,215.45Z" transform="translate(-614.549 -187.941)" opacity="0.1"/>
  <circle id="Ellipse_10" data-name="Ellipse 10" cx="6.163" cy="6.163" r="6.163" transform="translate(189.325 19.121)" fill="#ffcdd3"/>
  <path id="Path_80" data-name="Path 80" d="M812.947,244.552s-14.907,1.682-12.12.776A3.726,3.726,0,0,0,803.7,242.1a8.315,8.315,0,0,1,3.178-1.693,4.46,4.46,0,0,1,2.7-.045,3.841,3.841,0,0,1,.983.456A8.139,8.139,0,0,0,812.947,244.552Z" transform="translate(-610.829 -207.873)" opacity="0.1"/>
  <path id="Path_81" data-name="Path 81" d="M871.5,223.584l-2.85.66-.061-.424a2.522,2.522,0,0,1,2.741-.938Z" transform="translate(-660.899 -195.09)" opacity="0.1"/>
  <path id="Path_82" data-name="Path 82" d="M696.768,211.927l-3.419,1.685-.069-.734a24.944,24.944,0,0,1,3.443-1.528Z" transform="translate(-532.023 -186.685)" opacity="0.1"/>
  <path id="Path_83" data-name="Path 83" d="M806.434,389.294c-5.777.922-13.988,2.1-15.291,1.7-1.083-.328-4.537-.294-7.543-.191.026-1.5.053-2.5.053-2.5l22.376-2.331A18.692,18.692,0,0,0,806.434,389.294Z" transform="translate(-598.42 -315.054)" opacity="0.1"/>
  <path id="Path_84" data-name="Path 84" d="M743.306,260.135s-19.01,3.263-21.049,2.649-12.515.05-12.515.05c-4.715,3.16-2.747-1.5-2.747-1.5a11.588,11.588,0,0,1,.156-4.4,26.9,26.9,0,0,0,.781-4.407s-.1-3.11.466-3.835,1.245-5.9,1.245-5.9.517-3.523.466-4.3.154-2.953.154-2.953l.675-3.626c-3.886-.516-15.7-7.769-15.7-7.769-.57-2.434-4.972-8.131-4.972-8.131a5.993,5.993,0,0,0-.363-1.4c-.31-.829,4.352-2.487,4.352-2.487s3.47,4.238,4.2,5.387a23.1,23.1,0,0,0,3.21,3.263,2.5,2.5,0,0,1,1.139.148l.061.019h0a9.233,9.233,0,0,1,2.318,1.324,4.5,4.5,0,0,1,3.16,1.192s2.119-.313,2.487.05,2.175,0,2.175,0,1.812-3.833,3-2.72,6.248,1.059,6.248,1.059a7.316,7.316,0,0,1,3.337-1.854,4.479,4.479,0,0,1,2.7-.045,3.427,3.427,0,0,1,1.06.53l3.075,3s.879-1.142.776-1.4,1.036-.466,1.036-.466,1.5-.466,2.071-.622,1.091.461,1.139.516a6.193,6.193,0,0,1-.265-2.278,2.691,2.691,0,0,0-.622-1.854c1.812-4.455,5.9-.726,5.9-.726s.466,2.434.053,3.366.413,2.9.31,3.419.209,1.4.209,2.384a14.566,14.566,0,0,1-.829,3.676c-.3.829-2.8,2.694-2.8,2.694a11.694,11.694,0,0,1-1.245,4.662c-1.089,1.708-.405,7.551-.405,7.551s1.036,4.558,2.331,6.01S743.306,260.135,743.306,260.135Z" transform="translate(-529.534 -187.252)" fill="#3f3d56"/>
  <path id="Path_85" data-name="Path 85" d="M779.74,255.935s-.569-1.708-1.089-1.854a11.979,11.979,0,0,1-1.5-.673l.334-.638s1.944.53,2.257,1.1A4.4,4.4,0,0,1,779.74,255.935Z" transform="translate(-593.679 -217.135)" opacity="0.1"/>
  <path id="Path_86" data-name="Path 86" d="M734.535,246.693c-.1.53-4.715.983-4.715.983l2.331-2.336h0l.058.021h0A9.234,9.234,0,0,1,734.535,246.693Z" transform="translate(-558.885 -211.673)" opacity="0.1"/>
  <circle id="Ellipse_11" data-name="Ellipse 11" cx="0.413" cy="0.413" r="0.413" transform="translate(161.898 27.499)" fill="#575988"/>
  <circle id="Ellipse_12" data-name="Ellipse 12" cx="0.413" cy="0.413" r="0.413" transform="translate(162.428 28.328)" fill="#575988"/>
  <circle id="Ellipse_13" data-name="Ellipse 13" cx="0.413" cy="0.413" r="0.413" transform="translate(162.947 29.093)" fill="#575988"/>
  <circle id="Ellipse_14" data-name="Ellipse 14" cx="0.413" cy="0.413" r="0.413" transform="translate(163.49 29.919)" fill="#575988"/>
  <circle id="Ellipse_15" data-name="Ellipse 15" cx="0.336" cy="0.336" r="0.336" transform="translate(212.392 29.951)" fill="#575988"/>
  <circle id="Ellipse_16" data-name="Ellipse 16" cx="0.336" cy="0.336" r="0.336" transform="translate(212.445 30.717)" fill="#575988"/>
  <circle id="Ellipse_17" data-name="Ellipse 17" cx="0.336" cy="0.336" r="0.336" transform="translate(212.49 31.48)" fill="#575988"/>
  <path id="Path_87" data-name="Path 87" d="M787,317.719c-.05-.061,11.628,14.684,20.692,6.163C807.7,323.886,793.378,325.827,787,317.719Z" transform="translate(-600.919 -264.881)" opacity="0.1"/>
  <path id="Path_88" data-name="Path 88" d="M761.7,346.66s6.987.191,7.718,2.2v2.092a1.34,1.34,0,0,1-1.3,0c-.7-.381-4.929-2.527-6.418-1.494Z" transform="translate(-582.321 -286.156)" opacity="0.1"/>
  <path id="Path_89" data-name="Path 89" d="M762.19,346.66s6.683.183,7.382,2.1v1.992a1.282,1.282,0,0,1-1.245,0c-.673-.36-4.712-2.408-6.137-1.422Z" transform="translate(-582.681 -286.156)" fill="#3f3d56"/>
  <path id="Path_90" data-name="Path 90" d="M776.1,289.38a22.481,22.481,0,0,0,2.71,4.648,18.24,18.24,0,0,0,4.238,4.1S776.216,290.339,776.1,289.38Z" transform="translate(-592.907 -244.048)" opacity="0.1"/>
  <path id="Path_91" data-name="Path 91" d="M767.47,258.73s1.165,5.033,4.169,6.741Z" transform="translate(-586.563 -221.516)" opacity="0.1"/>
  <path id="Path_92" data-name="Path 92" d="M760.431,260.646c-.029-.093-1.036,3.973,3.872,6.232C764.3,266.878,762.219,266.171,760.431,260.646Z" transform="translate(-581.312 -222.923)" opacity="0.1"/>
  <path id="Path_93" data-name="Path 93" d="M875.905,247.9a34.945,34.945,0,0,1,3.1,2.331S877.38,247.795,875.905,247.9Z" transform="translate(-666.276 -213.553)" opacity="0.1"/>
  <path id="Path_94" data-name="Path 94" d="M802,196.169a.972.972,0,0,0,1.059.961,12.324,12.324,0,0,0,5.562-.53,2.12,2.12,0,0,0,.848-.562,3.485,3.485,0,0,0,.493-1.364,19.827,19.827,0,0,1,1.136-2.617,8.767,8.767,0,0,0,.612-4.7,3.178,3.178,0,0,0-.471-1.375c-.5-.712-1.406-1-2.066-1.568s-1.083-1.433-1.854-1.854a3.56,3.56,0,0,0-2.326-.207,12.208,12.208,0,0,0-4.339,1.629,2.213,2.213,0,0,1-1.451.493,1.941,1.941,0,0,1-1.059-.818,5.738,5.738,0,0,0-.442,2.688,1.155,1.155,0,0,1-.013.405,1.218,1.218,0,0,1-.289.426,1.568,1.568,0,0,0-.294,1.936c.2.236.506.366.7.607.347.432.23,1.059.222,1.61a.829.829,0,0,0,.138.546.8.8,0,0,0,.76.183,2.068,2.068,0,0,1,.81-.077,1.359,1.359,0,0,1,.7.53A9.956,9.956,0,0,1,802,196.169Z" transform="translate(-608.181 -165.298)" fill="#2d293d"/>
  <g id="Group_26" data-name="Group 26" transform="translate(188.696 18.302)" opacity="0.1">
    <path id="Path_95" data-name="Path 95" d="M809.692,209.863a2.119,2.119,0,0,1-.848.562,12.5,12.5,0,0,1-5.562.53.975.975,0,0,1-1.062-.964,9.662,9.662,0,0,0-1.571-3.645,1.362,1.362,0,0,0-.7-.543,2.172,2.172,0,0,0-.81.077.8.8,0,0,1-.76-.18.829.829,0,0,1-.138-.546c0-.556.125-1.179-.222-1.61-.193-.241-.5-.371-.7-.609a1.208,1.208,0,0,1-.119-1.234,1.412,1.412,0,0,0-.087,1.65c.2.236.506.366.7.607.347.434.23,1.059.223,1.61a.824.824,0,0,0,.135.546.8.8,0,0,0,.763.183,2.069,2.069,0,0,1,.81-.077,1.359,1.359,0,0,1,.7.53,9.681,9.681,0,0,1,1.571,3.647,1.324,1.324,0,0,0,.458.84,1.285,1.285,0,0,0,.583.127,12.288,12.288,0,0,0,5.562-.53,2.1,2.1,0,0,0,.848-.562,1.619,1.619,0,0,0,.265-.5A.131.131,0,0,1,809.692,209.863Z" transform="translate(-796.877 -197.894)"/>
    <path id="Path_96" data-name="Path 96" d="M799.952,190.318a.906.906,0,0,0,.188-.313,1.156,1.156,0,0,0,0-.405,5.744,5.744,0,0,1,.289-2.23l-.034-.04a5.694,5.694,0,0,0-.442,2.686,1.918,1.918,0,0,1,0,.3Z" transform="translate(-799.125 -187.33)"/>
  </g>
  <path id="Path_97" data-name="Path 97" d="M812.08,248.505s7.7,1.022,8.391-.135" transform="translate(-619.357 -213.9)" opacity="0.1"/>
  <path id="Path_98" data-name="Path 98" d="M868.59,236.85s4.28,0,5.221,1.61" transform="translate(-660.899 -205.431)" opacity="0.1"/>
  <path id="Path_99" data-name="Path 99" d="M943.29,766.715a6.789,6.789,0,0,1-4.622,1.727c-.434,0-1.036.082-1.038.516a.729.729,0,0,0,.127.355,4.251,4.251,0,0,0,2.384,1.873,8.425,8.425,0,0,0,2.884.183l2.821-.146c.53-.029,1.059-.056,1.589-.122s1.107-.175,1.661-.265a21.723,21.723,0,0,1,4.108-.191,1.244,1.244,0,0,0,1.012-.265c.217-.265.106-.771.024-1.168-.17-.818,0-1.677-.156-2.5a4.386,4.386,0,0,0-2.879-3.067c-1.271-.482-3.523-1.036-4.725-.23C945.211,764.262,944.434,765.674,943.29,766.715Z" transform="translate(-711.653 -592.228)" fill="#3f3d56"/>
  <path id="Path_100" data-name="Path 100" d="M953.859,578.418c.249,1.184,1.4,2.09,1.428,3.3a5.153,5.153,0,0,1-1.16,2.612,17.418,17.418,0,0,0-1.184,2.68,40.946,40.946,0,0,1-3.475,6.913,5.531,5.531,0,0,0-1.253,3.422,5.127,5.127,0,0,0,.6,1.637l1.987,3.947a11.426,11.426,0,0,1,1.014,2.492c.172.75.188,1.526.289,2.288.313,2.421,1.449,4.858.776,7.2-.058.2-.265.445-.426.3a7.547,7.547,0,0,1,1.134,3.851,5.37,5.37,0,0,0,.018,2.167,2.371,2.371,0,0,1,.31.853,5.441,5.441,0,0,1-.114.585,1.291,1.291,0,0,0,.991,1.2c.532.177,1.112.164,1.65.326a10.127,10.127,0,0,1,2.649,1.817,5.639,5.639,0,0,0,3.051.993.768.768,0,0,0,.45-.09.728.728,0,0,0,.249-.546,3.03,3.03,0,0,0-1.091-2.633,1.191,1.191,0,0,1-.405-.424,1.022,1.022,0,0,1-.037-.474,35.7,35.7,0,0,0-.117-6.516,9.9,9.9,0,0,1-.1-2.074,8.467,8.467,0,0,0,.167-1.724,9.153,9.153,0,0,0-.53-1.653,11.914,11.914,0,0,1-.265-3.075,26.97,26.97,0,0,0-.871-5.3,4.006,4.006,0,0,0-.824-1.912c-.413-.432-1.081-.845-.924-1.42a1.683,1.683,0,0,1,.379-.564,2.265,2.265,0,0,0,.471-1.727.776.776,0,0,0,.893-.418,13.965,13.965,0,0,0,6.987-7.946,2.623,2.623,0,0,1,.313-.71,3.2,3.2,0,0,1,1.279-.829,9.717,9.717,0,0,0,3.361-3.427A6.058,6.058,0,0,0,973,579.274l.082-3.112a1.682,1.682,0,0,0-.058-.609,1.522,1.522,0,0,0-.336-.493,5.984,5.984,0,0,0-3.3-1.78c-.848-.151-1.714-.122-2.572-.193a31.973,31.973,0,0,0-4.969-.53,7.952,7.952,0,0,0-6.174,4.32C955.242,577.693,954.786,578.4,953.859,578.418Z" transform="translate(-719.42 -452.206)" fill="#464353"/>
  <path id="Path_101" data-name="Path 101" d="M906.763,499.264a3.478,3.478,0,0,1-.191,1.417.99.99,0,0,1-1.163.6c.135-.3-.222-.652-.556-.615a1.041,1.041,0,0,0-.734.63,2.345,2.345,0,0,0-.212,1.438,5.836,5.836,0,0,1,.366,1.806c-.074.509-.448,1.014-.249,1.486a2.408,2.408,0,0,0,.479.575,1.621,1.621,0,0,1-.172,2.225l5.011.1a3.538,3.538,0,0,0,.622,2.437,15.362,15.362,0,0,0,11.453,7.477,1,1,0,0,0-.241,1.523,1.415,1.415,0,0,0,1.61.093,11.462,11.462,0,0,0,1.377-1.033,4.238,4.238,0,0,1,2.831-.763c.628.061,1.237.265,1.867.3,1.854.1,3.443-1.237,5.228-1.783,1.3-.4,2.776-.4,3.867-1.213a1.541,1.541,0,0,0,.72-1.491,2.491,2.491,0,0,0-.53-.877,15.142,15.142,0,0,1-1.449-2.715,16.241,16.241,0,0,0-3.621-4.852,32.4,32.4,0,0,0-3.592-2.723,6.126,6.126,0,0,0-.969-.585,10.874,10.874,0,0,1-1.324-.53,7.059,7.059,0,0,1-1.38-1.552c-.993-1.16-2.519-1.693-3.743-2.6a8.876,8.876,0,0,0-2.527-1.711c-.477-.146-.983-.156-1.459-.3-1.083-.328-1.873-1.29-2.935-1.679A11.777,11.777,0,0,0,912.5,494a6.2,6.2,0,0,1-2.768-1.054,3.284,3.284,0,0,0-.882-.514c-1.343-.408-1.451,2.092-1.589,2.959A28.536,28.536,0,0,0,906.763,499.264Z" transform="translate(-686.837 -393.288)" fill="#0d2440"/>
  <path id="Path_102" data-name="Path 102" d="M868.2,538.67c.225,2.442-1.618,4.807-1.081,7.2.114.509.334.993.413,1.51.225,1.417-.622,2.76-1.43,3.947l-6.94,10.184a6.4,6.4,0,0,1-.991,1.224c-1.324,1.179-3.316,1.06-5.059,1.409a8.741,8.741,0,0,0-3.39,1.5.22.22,0,0,0-.042.3,2.914,2.914,0,0,0,2.519,1.184c.183.238,0,.593-.252.765-.371.265-.885.326-.959.959a1.059,1.059,0,0,0,.127.636,1.979,1.979,0,0,0,1.213.842c2.4.736,5-.556,6.8-2.312s3.088-3.973,4.852-5.758c.977-.991,2.087-1.836,3.094-2.794a35.392,35.392,0,0,0,5.075-6.566,7.268,7.268,0,0,0,1.1-2.236c.188-.813.1-1.637.315-2.424a8.906,8.906,0,0,1,1.663-2.718,8.987,8.987,0,0,0,1.891-5.859,5.616,5.616,0,0,0-3.427-4.86,3.08,3.08,0,0,0-1.92-.117,4.548,4.548,0,0,0-1.955,1.557l-1.324,1.52a3.548,3.548,0,0,0-.744,1.168,1.221,1.221,0,0,0,.265,1.3" transform="translate(-646.967 -424.308)" fill="#fbbebe"/>
  <path id="Path_103" data-name="Path 103" d="M920.546,511.934a3.8,3.8,0,0,0-2.559.795,3.642,3.642,0,0,0-.646,1.012,10.076,10.076,0,0,0-1.279,4.026,18.422,18.422,0,0,0,.464,3.364,12.865,12.865,0,0,1-.289,2.826,19.619,19.619,0,0,0,3.65-1.4,12.22,12.22,0,0,1,2.137-1.11c1.089-.363,2.914.265,3.949.768.056-.726-.49-1.992-.432-2.72a3.037,3.037,0,0,1,.162-.9,5.461,5.461,0,0,1,.548-.871,3.565,3.565,0,0,0-.32-4.177,5.817,5.817,0,0,0-3.729-1.589,16.133,16.133,0,0,0-2.6-.09" transform="translate(-695.795 -407.589)" fill="#0d2440"/>
</svg>
